<svg width="503" height="342" viewBox="0 0 503 342" fill="none" xmlns="http://www.w3.org/2000/svg">
<g clip-path="url(#clip0)">
<path d="M147.909 331.965C147.909 331.965 124.118 305.386 54.9219 313.387C54.9219 313.387 73.5465 333.999 93.5305 336.576L147.909 331.965Z" fill="url(#paint0_linear)"/>
<path d="M188.555 307.42C188.555 307.42 146.683 264.297 60.7656 250.33C60.7656 250.33 87.411 309.997 145.596 331.965H226.076L188.555 307.42Z" fill="url(#paint1_linear)"/>
<path d="M81.4258 264.975C81.4258 264.975 152.661 304.979 186.92 332.779L81.4258 264.975Z" fill="url(#paint2_linear)"/>
<path d="M186.921 333.728C186.65 333.728 186.514 333.592 186.242 333.457C152.391 306.064 81.5634 266.196 80.8836 265.789C80.3398 265.518 80.2039 264.975 80.4758 264.433C80.7477 263.891 81.2915 263.755 81.8352 264.026C82.515 264.433 153.479 304.437 187.465 331.965C187.873 332.372 188.009 332.914 187.601 333.321C187.465 333.592 187.193 333.728 186.921 333.728Z" fill="#9AB6F4"/>
<path d="M244.568 331.964C244.568 331.964 183.936 223.072 106.039 195.951C106.039 195.951 128.606 294.808 217.787 334.677L244.568 331.964Z" fill="url(#paint3_linear)"/>
<path d="M226.216 331.558C226.216 331.558 166.671 253.72 126.703 220.496L226.216 331.558Z" fill="url(#paint4_linear)"/>
<path d="M226.215 332.507C225.943 332.507 225.671 332.372 225.399 332.1C224.856 331.287 165.447 253.991 126.023 221.174C125.615 220.767 125.479 220.225 125.887 219.818C126.295 219.411 126.838 219.276 127.246 219.682C166.807 252.499 226.215 330.066 226.895 330.88C227.167 331.287 227.167 331.965 226.759 332.236C226.623 332.507 226.351 332.507 226.215 332.507Z" fill="#9AB6F4"/>
<path d="M153.348 171.406C153.348 171.406 169.933 272.298 254.491 331.965H281.137C281.001 331.965 241.169 209.919 153.348 171.406Z" fill="url(#paint5_linear)"/>
<path d="M173.195 195.951C173.195 195.951 219.145 251.686 265.639 331.965L173.195 195.951Z" fill="url(#paint6_linear)"/>
<path d="M265.775 333.05C265.367 333.05 265.095 332.914 264.959 332.507C219.009 253.178 173.06 197.172 172.516 196.63C172.108 196.223 172.244 195.545 172.652 195.273C173.06 194.867 173.739 195.002 174.011 195.409C174.419 195.952 220.505 252.093 266.59 331.558C266.862 332.101 266.726 332.643 266.183 332.914C266.047 332.914 265.911 333.05 265.775 333.05Z" fill="#9AB6F4"/>
<path d="M400.227 331.965C400.227 331.965 424.017 305.386 493.214 313.387C493.214 313.387 474.589 333.999 454.605 336.576L400.227 331.965Z" fill="url(#paint7_linear)"/>
<path d="M359.58 307.42C359.58 307.42 401.451 264.297 487.369 250.33C487.369 250.33 460.723 309.997 402.539 331.965H322.059L359.58 307.42Z" fill="url(#paint8_linear)"/>
<path d="M466.705 264.975C466.705 264.975 395.469 304.979 361.211 332.779L466.705 264.975Z" fill="url(#paint9_linear)"/>
<path d="M361.211 333.728C361.483 333.728 361.619 333.592 361.891 333.457C395.741 306.064 466.569 266.196 467.249 265.789C467.793 265.518 467.929 264.975 467.657 264.433C467.385 263.891 466.841 263.755 466.297 264.026C465.618 264.433 394.654 304.437 360.667 331.965C360.259 332.372 360.124 332.914 360.531 333.321C360.667 333.592 360.939 333.728 361.211 333.728Z" fill="#9AB6F4"/>
<path d="M303.57 331.964C303.57 331.964 364.202 223.072 442.099 195.951C442.099 195.951 419.532 294.808 330.352 334.677L303.57 331.964Z" fill="url(#paint10_linear)"/>
<path d="M321.922 331.558C321.922 331.558 381.466 253.72 421.434 220.496L321.922 331.558Z" fill="url(#paint11_linear)"/>
<path d="M321.924 332.507C322.196 332.507 322.468 332.372 322.74 332.1C323.283 331.287 382.692 253.991 422.116 221.174C422.524 220.767 422.66 220.225 422.252 219.818C421.844 219.411 421.3 219.276 420.893 219.682C381.332 252.499 321.924 330.066 321.244 330.88C320.972 331.287 320.972 331.965 321.38 332.236C321.516 332.507 321.788 332.507 321.924 332.507Z" fill="#9AB6F4"/>
<path d="M394.789 171.406C394.789 171.406 378.204 272.298 293.645 331.965H267C267.136 331.965 306.968 209.919 394.789 171.406Z" fill="url(#paint12_linear)"/>
<path d="M374.806 195.951C374.806 195.951 328.857 251.686 282.363 331.965L374.806 195.951Z" fill="url(#paint13_linear)"/>
<path d="M282.362 333.05C282.77 333.05 283.042 332.914 283.177 332.507C329.127 253.178 375.077 197.172 375.621 196.63C376.028 196.223 375.893 195.545 375.485 195.273C375.077 194.867 374.397 195.002 374.125 195.409C373.717 195.952 327.632 252.093 281.546 331.558C281.274 332.101 281.41 332.643 281.954 332.914C282.09 332.914 282.226 333.05 282.362 333.05Z" fill="#9AB6F4"/>
<path d="M416.133 242.329H413.414V288.842H416.133V242.329Z" fill="#F8FBFF"/>
<path d="M419.531 240.43H416.812V286.944H419.531V240.43Z" fill="#E7EEF7"/>
<path d="M422.113 242.329H419.395V288.842H422.113V242.329Z" fill="#F8FBFF"/>
<path d="M425.512 242.329H422.793V288.842H425.512V242.329Z" fill="#E7EEF7"/>
<path d="M428.094 241.109H425.375V287.622H428.094V241.109Z" fill="#F8FBFF"/>
<path d="M435.438 268.23H432.719V314.743H435.438V268.23Z" fill="#F8FBFF"/>
<path d="M324.233 232.565C324.233 232.565 387.448 227.819 391.391 245.719C395.333 263.619 375.485 309.454 378.748 336.711H318.795C318.931 336.575 309.007 261.178 324.233 232.565Z" fill="#5577E0"/>
<path d="M318.932 232.565C318.932 232.565 382.147 227.819 386.09 245.719C390.032 263.619 370.184 309.454 373.447 336.711H313.495C313.631 336.575 303.707 261.178 318.932 232.565Z" fill="url(#paint14_linear)"/>
<path d="M413.414 331.965V255.619H432.039V293.453L446.041 309.454V331.965H413.414Z" fill="#5577E0"/>
<path d="M435.437 310.811H418.172V322.066H435.437V310.811Z" fill="#E2EBFC"/>
<path d="M111.069 306.742C109.845 306.742 108.758 305.657 108.758 304.437V298.47C108.758 297.25 109.845 296.165 111.069 296.165C112.292 296.165 113.38 297.25 113.38 298.47V304.437C113.38 305.793 112.292 306.742 111.069 306.742Z" fill="#5577E0"/>
<path d="M134.315 306.742C133.091 306.742 132.004 305.657 132.004 304.437V298.47C132.004 297.25 133.091 296.165 134.315 296.165C135.539 296.165 136.626 297.25 136.626 298.47V304.437C136.626 305.793 135.674 306.742 134.315 306.742Z" fill="#5577E0"/>
<path d="M104.68 302.132C104.68 302.132 125.343 302.132 134.588 302.132C143.968 302.132 145.192 310.81 153.212 312.031C161.233 313.387 163.136 320.303 164.904 331.829H120.721L104.68 302.132Z" fill="url(#paint15_linear)"/>
<path d="M94.7539 333.321C94.7539 333.321 98.6963 302.132 104.678 302.132C110.116 302.132 112.699 312.709 123.303 314.065C133.906 315.421 136.897 331.965 136.897 331.965L94.7539 333.321Z" fill="#5577E0"/>
<path d="M142.879 309.861C147.773 313.387 150.356 318.269 148.589 320.71C146.821 323.151 141.383 322.337 136.489 318.811C131.595 315.286 129.012 310.404 130.78 307.963C132.547 305.522 137.985 306.336 142.879 309.861Z" fill="#E2EBFC"/>
<path d="M36.7089 67.6677C36.437 67.6677 36.1651 67.5321 35.8932 67.3965C34.2619 65.7692 33.3102 64.6844 33.3102 64.6844C32.9024 64.2775 32.9024 63.4639 33.4462 63.0571C33.854 62.6503 34.6697 62.6503 35.0775 63.1927C35.0775 63.1927 36.0292 64.2775 37.5246 65.7692C37.9324 66.176 37.9324 66.8541 37.5246 67.3965C37.3886 67.5321 36.9808 67.6677 36.7089 67.6677Z" fill="#5577E0"/>
<path d="M205.145 253.991C204.873 253.991 204.465 253.856 204.329 253.584C202.698 251.686 201.066 249.787 199.707 247.753C199.299 247.211 199.435 246.533 199.979 246.262C200.523 245.855 201.202 245.99 201.474 246.533C202.834 248.431 204.329 250.33 205.96 252.093C206.368 252.499 206.368 253.313 205.824 253.72C205.688 253.856 205.417 253.991 205.145 253.991ZM194.133 236.905C193.725 236.905 193.317 236.634 193.045 236.227C192.094 233.921 191.142 231.616 190.463 229.311C190.327 228.768 190.598 228.09 191.142 227.955C191.686 227.819 192.366 228.09 192.502 228.633C193.181 230.938 194.133 233.243 195.085 235.413C195.357 235.956 195.085 236.634 194.541 236.905C194.405 236.905 194.269 236.905 194.133 236.905ZM188.695 217.242C188.151 217.242 187.608 216.835 187.608 216.293C187.336 213.852 187.064 211.411 187.064 208.97C187.064 208.292 187.472 207.885 188.151 207.749C188.831 207.749 189.239 208.156 189.375 208.834C189.511 211.275 189.647 213.716 189.919 216.021C190.055 216.699 189.511 217.242 188.967 217.242C188.831 217.242 188.695 217.242 188.695 217.242ZM188.559 196.765C187.88 196.765 187.336 196.087 187.472 195.545C187.744 193.104 188.016 190.663 188.423 188.222C188.559 187.68 189.103 187.137 189.647 187.273C190.191 187.408 190.734 187.951 190.598 188.493C190.191 190.934 189.919 193.375 189.647 195.68C189.647 196.358 189.103 196.765 188.559 196.765ZM192.23 176.695C192.094 176.695 192.094 176.695 191.958 176.695C191.414 176.56 191.006 175.882 191.142 175.339C191.686 173.034 192.366 170.593 193.181 168.288C193.317 167.745 193.997 167.339 194.541 167.61C195.085 167.745 195.493 168.423 195.221 168.966C194.541 171.271 193.861 173.712 193.181 176.017C193.181 176.289 192.774 176.695 192.23 176.695ZM198.483 157.168C198.347 157.168 198.211 157.168 198.075 157.032C197.532 156.761 197.26 156.219 197.396 155.541C198.211 153.371 199.163 151.066 200.115 148.76C200.387 148.218 201.066 147.947 201.61 148.218C202.154 148.489 202.426 149.167 202.154 149.71C201.202 152.015 200.251 154.32 199.435 156.49C199.435 156.897 199.027 157.168 198.483 157.168ZM206.504 138.319C206.368 138.319 206.232 138.319 206.096 138.183C205.553 137.912 205.281 137.234 205.553 136.691C206.504 134.522 207.592 132.352 208.679 130.047C208.951 129.504 209.631 129.233 210.175 129.504C210.718 129.775 210.99 130.454 210.718 130.996C209.631 133.166 208.543 135.471 207.592 137.641C207.32 138.048 206.912 138.319 206.504 138.319ZM215.613 120.012C215.477 120.012 215.205 120.012 215.069 119.876C214.525 119.605 214.253 118.927 214.661 118.385C215.748 116.35 216.972 114.181 218.195 111.875C218.467 111.333 219.147 111.197 219.691 111.469C220.235 111.74 220.371 112.418 220.099 112.96C218.875 115.13 217.788 117.3 216.564 119.334C216.428 119.741 216.02 120.012 215.613 120.012ZM225.537 102.112C225.401 102.112 225.129 102.112 224.993 101.976C224.449 101.705 224.313 101.027 224.585 100.484C225.808 98.3148 227.032 96.2807 228.255 94.1109C228.527 93.5685 229.207 93.4329 229.751 93.7041C230.295 93.9753 230.431 94.6534 230.159 95.1958C228.935 97.2299 227.712 99.3996 226.488 101.569C226.352 101.841 225.944 102.112 225.537 102.112ZM72.3255 86.6526C72.1895 86.6526 72.1895 86.6526 72.3255 86.6526C69.7425 86.3814 67.2955 85.8389 64.8485 85.1609C64.3047 85.0253 63.8968 84.3473 64.0328 83.8048C64.1687 83.2624 64.8485 82.8556 65.3922 82.9912C67.7033 83.6692 70.1504 84.0761 72.3255 84.3473C73.0052 84.4829 73.4131 85.0253 73.2771 85.5677C73.2771 86.2458 72.8693 86.6526 72.3255 86.6526ZM85.3763 85.8389C84.8325 85.8389 84.4247 85.4321 84.2887 85.0253C84.1528 84.4829 84.5606 83.8048 85.1044 83.6692C87.4155 83.1268 89.5906 82.3132 91.7658 81.3639C92.3095 81.0927 92.9893 81.3639 93.2612 81.9064C93.5331 82.4488 93.2612 83.1268 92.7174 83.398C90.4063 84.4829 87.9593 85.2965 85.6482 85.8389C85.5122 85.8389 85.5122 85.8389 85.3763 85.8389ZM235.868 84.3473C235.733 84.3473 235.461 84.3473 235.325 84.2117C234.781 83.9405 234.645 83.2624 234.917 82.72C236.14 80.5503 237.092 78.3806 238.044 76.2109C238.315 75.6684 238.995 75.3972 239.539 75.6684C240.083 75.9397 240.355 76.6177 240.083 77.1601C239.131 79.3298 238.044 81.6351 236.82 83.8048C236.684 84.0761 236.276 84.3473 235.868 84.3473ZM53.0212 80.0079C52.8852 80.0079 52.6133 80.0079 52.4774 79.8723C50.3022 78.6518 48.2631 77.4313 46.2239 75.9397C45.6801 75.5328 45.5441 74.8548 45.952 74.448C46.3598 73.9056 47.0395 73.77 47.4474 74.1768C49.4866 75.5328 51.5258 76.8889 53.565 78.1094C54.1087 78.3806 54.2447 79.0586 53.9728 79.601C53.7009 79.8723 53.429 80.0079 53.0212 80.0079ZM103.321 76.2109C103.049 76.2109 102.641 76.0753 102.505 75.8041C102.098 75.3972 102.098 74.5836 102.641 74.1768C103.049 73.77 103.593 73.3631 104.001 72.9563C105.36 71.7359 106.584 70.5154 107.943 69.2949C108.351 68.8881 109.031 68.8881 109.575 69.2949C109.983 69.7018 109.983 70.3798 109.575 70.9222C108.215 72.1427 106.992 73.3631 105.632 74.5836C105.088 74.9904 104.681 75.5328 104.137 75.9397C103.729 76.0753 103.457 76.2109 103.321 76.2109ZM243.074 65.2267C242.938 65.2267 242.938 65.2267 242.802 65.2267C242.258 65.0911 241.85 64.5487 241.986 63.8707C242.53 61.5654 242.938 59.1244 243.074 56.8191C243.074 56.1411 243.617 55.7343 244.297 55.8699C244.977 55.8699 245.385 56.4123 245.249 57.0903C244.977 59.5313 244.569 61.9722 244.025 64.4131C244.161 64.9555 243.617 65.2267 243.074 65.2267ZM118.003 61.9722C117.731 61.9722 117.46 61.8366 117.188 61.701C116.78 61.2941 116.78 60.6161 117.188 60.0737C118.819 58.3108 120.45 56.6835 122.218 54.785C122.625 54.3782 123.305 54.2426 123.849 54.785C124.257 55.1918 124.393 55.8699 123.849 56.4123C122.082 58.3108 120.45 60.0737 118.819 61.701C118.547 61.8366 118.275 61.9722 118.003 61.9722ZM131.734 46.7842C131.462 46.7842 131.19 46.6486 131.054 46.513C130.646 46.1062 130.51 45.4282 130.918 44.8857L132.006 43.6653C133.229 42.3092 134.589 40.8175 135.812 39.4615C136.22 39.0547 136.9 38.919 137.444 39.3259C137.851 39.7327 137.987 40.4107 137.58 40.9531C136.356 42.3092 135.133 43.6653 133.773 45.1569L132.685 46.3774C132.414 46.6486 132.142 46.7842 131.734 46.7842ZM244.161 44.8857C243.617 44.8857 243.074 44.4789 243.074 43.9365C242.802 41.6312 242.258 39.1903 241.714 36.8849C241.578 36.3425 241.85 35.6645 242.53 35.5289C243.074 35.3933 243.753 35.6645 243.889 36.3425C244.569 38.7834 244.977 41.2244 245.385 43.6653C245.521 44.3433 244.977 44.8857 244.433 44.8857C244.161 44.8857 244.161 44.8857 244.161 44.8857ZM145.6 31.7319C145.328 31.7319 145.057 31.5963 144.785 31.4607C144.377 31.0539 144.377 30.3758 144.785 29.8334C146.552 27.9349 148.319 26.3076 150.087 24.6803C150.494 24.2735 151.31 24.2735 151.718 24.6803C152.126 25.0872 152.126 25.9008 151.718 26.3076C150.087 27.9349 148.319 29.5622 146.552 31.4607C146.28 31.5963 145.872 31.7319 145.6 31.7319ZM237.772 25.6296C237.364 25.6296 236.956 25.494 236.82 25.0872C235.597 23.0531 234.237 21.019 232.878 19.1205C232.47 18.578 232.606 17.9 233.014 17.4932C233.557 17.0864 234.237 17.222 234.645 17.6288C236.14 19.5273 237.5 21.697 238.859 23.8667C239.131 24.4091 238.995 25.0872 238.451 25.3584C238.044 25.6296 237.908 25.6296 237.772 25.6296ZM160.962 18.1712C160.554 18.1712 160.283 18.0356 160.011 17.7644C159.603 17.222 159.739 16.5439 160.283 16.1371C162.322 14.6455 164.361 13.2894 166.4 11.9333C166.944 11.6621 167.624 11.7977 167.895 12.3401C168.167 12.8826 168.031 13.5606 167.488 13.8318C165.448 15.0523 163.409 16.4083 161.506 17.9C161.37 18.0356 161.098 18.1712 160.962 18.1712ZM224.177 10.4416C223.905 10.4416 223.769 10.306 223.497 10.1704C221.594 8.81437 219.555 7.4583 217.38 6.50905C216.836 6.23784 216.564 5.55981 216.836 5.01738C217.108 4.47496 217.788 4.20374 218.331 4.47496C220.507 5.55981 222.682 6.91587 224.721 8.40755C225.265 8.81437 225.265 9.4924 224.993 9.89922C224.857 10.306 224.585 10.4416 224.177 10.4416ZM178.499 7.72951C178.091 7.72951 177.684 7.4583 177.412 7.05148C177.14 6.50905 177.412 5.83102 177.955 5.55981C180.131 4.61056 182.442 3.66132 184.753 2.71207C185.297 2.44086 185.976 2.84768 186.248 3.3901C186.52 3.93253 186.112 4.61056 185.568 4.88177C183.257 5.69542 180.946 6.64466 178.907 7.59391C178.907 7.72951 178.635 7.72951 178.499 7.72951ZM205.417 2.57646H205.281C202.97 2.16964 200.523 2.16964 198.211 2.16964C197.532 2.16964 197.124 1.76282 196.988 1.08479C196.988 0.406756 197.396 -6.42985e-05 198.075 -0.135671C200.523 -0.271278 203.105 -0.135671 205.553 0.271149C206.096 0.406756 206.64 0.949182 206.504 1.49161C206.504 2.16964 205.96 2.57646 205.417 2.57646Z" fill="#5577E0"/>
<path d="M217.789 265.382C217.517 265.382 217.381 265.247 217.109 265.111C216.021 264.433 215.07 263.619 214.118 262.806C213.574 262.399 213.574 261.721 213.982 261.179C214.39 260.636 215.07 260.636 215.613 261.043C216.565 261.857 217.517 262.535 218.604 263.213C219.148 263.619 219.148 264.297 218.876 264.704C218.468 265.247 218.196 265.382 217.789 265.382Z" fill="#5577E0"/>
<path d="M308.463 292.232C307.919 292.232 307.375 291.69 307.375 291.148C307.375 290.469 307.919 290.063 308.463 290.063C308.463 290.063 311.181 290.063 315.668 288.978C316.211 288.842 316.891 289.249 317.027 289.791C317.163 290.334 316.755 291.012 316.211 291.148C311.453 292.232 308.598 292.232 308.463 292.232ZM328.447 286.808C328.039 286.808 327.631 286.537 327.495 286.13C327.223 285.588 327.495 284.91 328.039 284.638C330.214 283.554 332.389 282.469 334.564 281.248C335.108 280.977 335.788 281.113 336.06 281.655C336.331 282.197 336.196 282.876 335.652 283.147C333.477 284.503 331.166 285.588 328.99 286.672C328.719 286.672 328.583 286.808 328.447 286.808ZM345.848 275.417C345.576 275.417 345.168 275.282 345.032 275.01C344.624 274.604 344.624 273.79 345.168 273.383C346.935 271.756 348.838 270.128 350.47 268.366C350.878 267.959 351.557 267.959 352.101 268.366C352.509 268.772 352.509 269.45 352.101 269.993C350.334 271.756 348.431 273.519 346.663 275.146C346.391 275.282 346.12 275.417 345.848 275.417ZM359.85 260.094C359.578 260.094 359.442 259.958 359.17 259.822C358.627 259.416 358.627 258.738 358.899 258.331C360.258 256.432 361.753 254.398 362.977 252.228C363.249 251.686 364.064 251.55 364.472 251.822C365.016 252.093 365.152 252.906 364.88 253.313C363.521 255.483 362.161 257.517 360.666 259.551C360.53 259.958 360.258 260.094 359.85 260.094ZM370.59 242.329C370.454 242.329 370.318 242.329 370.046 242.194C369.502 241.922 369.23 241.244 369.502 240.702C370.59 238.532 371.541 236.227 372.629 234.057C372.901 233.515 373.581 233.243 374.124 233.515C374.668 233.786 374.94 234.464 374.668 235.006C373.717 237.312 372.629 239.617 371.541 241.787C371.406 242.058 370.998 242.329 370.59 242.329ZM378.475 222.937C378.339 222.937 378.203 222.937 378.067 222.937C377.523 222.802 377.115 222.124 377.387 221.581C378.203 219.276 378.883 216.835 379.426 214.53C379.562 213.987 380.242 213.581 380.786 213.716C381.33 213.852 381.737 214.53 381.602 215.072C380.922 217.513 380.242 219.818 379.562 222.259C379.29 222.666 378.883 222.937 378.475 222.937ZM383.233 202.732H383.097C382.553 202.596 382.009 202.054 382.145 201.512C382.553 199.071 382.825 196.63 383.097 194.189C383.097 193.511 383.641 193.104 384.32 193.239C385 193.239 385.408 193.782 385.272 194.46C385 196.901 384.728 199.477 384.32 201.918C384.32 202.325 383.777 202.732 383.233 202.732ZM384.864 181.984C384.184 181.984 383.777 181.442 383.777 180.899V180.628C383.777 178.323 383.777 175.882 383.641 173.577C383.641 172.898 384.049 172.492 384.728 172.356C385.272 172.356 385.816 172.763 385.952 173.441C386.088 175.882 386.088 178.323 386.088 180.628V180.899C385.952 181.577 385.408 181.984 384.864 181.984ZM383.505 161.236C382.961 161.236 382.417 160.829 382.417 160.287C382.145 157.982 381.737 155.405 381.33 152.964C381.194 152.422 381.602 151.744 382.281 151.744C382.825 151.608 383.505 152.015 383.505 152.693C383.913 155.27 384.32 157.711 384.592 160.151C384.728 160.829 384.184 161.372 383.641 161.372C383.641 161.236 383.505 161.236 383.505 161.236ZM379.97 140.76C379.426 140.76 379.019 140.353 378.883 139.81C378.339 137.37 377.795 134.929 377.387 132.488C377.251 131.945 377.659 131.267 378.203 131.132C378.747 130.996 379.426 131.403 379.562 131.945C380.106 134.386 380.65 136.827 381.194 139.268C381.33 139.81 380.922 140.488 380.378 140.624C380.106 140.76 380.106 140.76 379.97 140.76ZM375.484 120.419C374.94 120.419 374.532 120.012 374.396 119.605C373.853 116.893 373.309 114.452 372.901 112.282C372.765 111.74 373.173 111.062 373.853 110.926C374.396 110.791 375.076 111.197 375.212 111.875C375.62 114.045 376.164 116.351 376.707 119.198C376.843 119.741 376.436 120.419 375.892 120.554C375.756 120.419 375.62 120.419 375.484 120.419ZM371.949 99.9421C371.406 99.9421 370.862 99.5353 370.862 98.9929C370.59 96.4163 370.454 94.111 370.454 91.8057V91.5345C370.454 90.8565 370.998 90.4496 371.541 90.4496C372.221 90.4496 372.629 90.9921 372.629 91.5345V91.8057C372.629 93.9754 372.765 96.2807 373.037 98.8573C373.173 99.2641 372.765 99.8065 371.949 99.9421C372.085 99.9421 372.085 99.9421 371.949 99.9421ZM372.765 79.1943C372.629 79.1943 372.629 79.1943 372.493 79.1943C371.949 79.0587 371.541 78.5162 371.677 77.8382C372.357 75.1261 373.173 72.6852 374.26 70.6511C374.532 70.1086 375.212 69.8374 375.756 70.2442C376.3 70.5154 376.572 71.1935 376.164 71.7359C375.212 73.6344 374.396 75.9397 373.853 78.5162C373.717 78.9231 373.173 79.1943 372.765 79.1943ZM412.053 69.7018C411.917 69.7018 411.646 69.7018 411.51 69.5662C409.199 68.3457 407.023 67.2609 404.848 66.4472C404.304 66.176 404.033 65.498 404.304 64.9556C404.576 64.4132 405.256 64.1419 405.8 64.4131C407.975 65.3624 410.286 66.4473 412.597 67.6677C413.141 67.9389 413.413 68.617 413.005 69.1594C412.869 69.4306 412.461 69.7018 412.053 69.7018ZM385 63.7351C384.456 63.7351 384.049 63.4639 383.913 62.9215C383.777 62.3791 384.049 61.701 384.728 61.5654C387.039 60.8874 389.622 60.6162 392.477 60.8874C393.157 60.8874 393.565 61.4298 393.565 62.1078C393.565 62.7859 393.021 63.1927 392.341 63.1927C389.758 63.0571 387.447 63.1927 385.408 63.8707C385.272 63.7351 385.136 63.7351 385 63.7351Z" fill="#5577E0"/>
<path d="M248.512 216.564C248.512 216.564 238.588 212.631 230.567 223.886C222.546 235.142 219.963 252.364 213.981 261.043C208 269.721 209.359 309.454 209.359 309.454C209.359 309.454 219.963 308.098 225.945 296.165C231.926 284.231 237.228 278.265 237.228 278.265L243.89 237.718L248.512 216.564Z" fill="url(#paint16_linear)"/>
<path d="M228.529 190.663C228.529 190.663 227.985 187.544 231.792 186.053C235.734 184.561 229.073 176.153 229.073 176.153C229.073 176.153 212.624 177.374 219.557 192.969C226.49 208.563 228.529 190.663 228.529 190.663Z" fill="url(#paint17_linear)"/>
<path d="M243.754 216.564C243.754 216.564 245.114 217.92 241.035 238.532C237.093 259.144 229.752 269.722 238.996 280.299C248.24 290.876 255.582 310.81 252.319 334.677H340.82C340.82 334.677 338.101 310.81 330.896 298.877L316.213 215.886C311.863 211.004 304.25 209.241 296.909 209.241C297.045 209.241 277.061 225.107 243.754 216.564Z" fill="url(#paint18_linear)"/>
<path d="M265.777 143.472C265.777 143.472 266.457 130.861 276.381 130.182C286.305 129.504 297.045 148.761 292.287 159.338C287.665 169.915 276.381 162.592 276.381 162.592L265.777 143.472Z" fill="url(#paint19_linear)"/>
<path d="M261.02 144.828C261.02 144.828 263.059 142.794 265.642 142.794C266.321 142.794 275.022 146.048 279.644 156.761C284.266 167.339 277.605 166.66 277.605 166.66L261.02 144.828Z" fill="#F9ECDC"/>
<path d="M231.385 186.595C231.385 186.595 217.518 163.135 230.569 149.439C239.133 140.489 252.456 139.132 263.196 144.014C270.673 147.404 276.79 153.778 279.237 162.592C283.86 179.814 277.198 189.171 276.519 201.783L231.385 186.595Z" fill="url(#paint20_linear)"/>
<path d="M271.758 185.239C271.758 185.239 275.701 203.139 282.362 206.529C289.024 209.784 297.044 209.241 297.044 209.241C297.044 209.241 280.323 229.176 266.457 229.176C252.454 229.176 247.832 216.564 247.832 216.564C247.832 216.564 255.173 217.242 259.116 213.852C263.058 210.597 259.116 207.207 259.116 207.207L271.758 185.239Z" fill="url(#paint21_linear)"/>
<path d="M230.43 185.239C230.43 185.239 247.015 210.462 256.395 211.14C265.776 211.818 271.757 197.85 271.757 185.239C271.757 185.239 277.059 177.238 273.117 171.949C269.174 166.661 266.455 175.204 268.495 181.849C268.495 181.849 262.513 180.492 259.114 172.492C259.114 172.492 245.112 175.746 235.188 168.559C235.188 168.695 237.771 181.306 230.43 185.239Z" fill="url(#paint22_linear)"/>
<path d="M227.848 205.173C227.848 205.173 239.131 221.039 246.472 220.497C253.813 219.819 259.115 215.208 255.853 209.919C252.59 204.631 245.249 199.342 242.938 201.376C240.627 203.41 240.627 206.665 240.627 206.665C240.627 206.665 233.965 203.41 232.606 200.698C231.11 197.85 227.848 205.173 227.848 205.173Z" fill="url(#paint23_linear)"/>
<path d="M221.187 217.784C221.187 217.784 217.924 242.329 218.468 264.297C219.148 286.266 217.109 306.742 209.088 310.132C201.067 313.387 197.125 306.878 193.182 302.132C189.24 297.521 190.463 284.91 194.542 265.653C198.484 246.397 209.224 221.174 211.807 211.953C211.807 211.953 213.166 198.664 219.148 193.375C225.13 188.086 227.848 188.764 229.752 190.663C231.791 192.697 236.413 199.342 235.733 201.24C235.054 203.274 232.471 200.562 231.111 202.596C229.752 204.63 225.809 219.14 221.187 217.784Z" fill="url(#paint24_linear)"/>
<path d="M330.894 298.742C329.127 303.759 318.795 308.912 305.608 313.658C278.963 323.151 241.034 330.609 241.034 330.609C237.771 333.321 220.37 331.287 219.01 329.931C217.651 328.575 206.367 332.643 203.105 329.931C199.842 327.219 210.446 320.574 217.107 320.574C223.769 320.574 238.451 320.574 238.451 320.574C256.26 315.692 278.827 302.945 293.645 293.86C303.161 287.893 309.686 283.418 309.686 283.418C312.949 262.128 305.064 258.195 299.762 234.328C296.092 217.92 305.064 207.071 315.124 214.394C324.912 221.853 337.963 278.536 330.894 298.742Z" fill="url(#paint25_linear)"/>
<path d="M330.894 298.741C329.126 303.759 318.795 308.912 305.608 313.658C299.49 309.183 295.548 299.555 293.645 293.86C303.161 287.893 309.686 283.418 309.686 283.418C312.949 262.128 305.064 258.195 299.762 234.328C296.092 217.92 305.064 207.071 315.124 214.394C324.912 221.853 337.963 278.536 330.894 298.741Z" fill="url(#paint26_linear)"/>
<path d="M503 331.965H0V341.864H503V331.965Z" fill="#E2EBFC"/>
<path d="M335.056 78.4109C336.809 67.617 329.459 57.4445 318.639 55.69C307.819 53.9354 297.627 61.2632 295.874 72.0571C294.12 82.8509 301.47 93.0234 312.29 94.778C323.11 96.5325 333.303 89.2047 335.056 78.4109Z" fill="#E2EBFC"/>
<path d="M320.02 69.8377C320.02 69.8377 317.03 70.9226 316.214 68.7529C315.398 66.4476 319.205 60.7521 321.108 61.1589C323.011 61.5657 325.73 66.7188 325.73 69.1597C325.73 71.8718 321.516 84.3476 316.214 87.7378C310.912 91.128 304.387 89.6363 305.202 86.2461C306.018 82.856 308.601 78.6522 309.824 79.059C310.912 79.4658 314.039 83.2628 314.039 83.2628C314.039 83.2628 320.836 76.6181 320.02 69.8377Z" fill="#9AB6F4"/>
<path d="M467.385 125.3V155.134C467.385 156.761 466.026 158.117 464.395 158.117H414.503C412.871 158.117 411.512 156.761 411.512 155.134V125.3C411.512 124.758 411.648 124.351 411.784 123.944C412.327 122.995 413.279 122.317 414.503 122.317H464.395C465.618 122.317 466.57 122.995 467.114 123.944C467.25 124.351 467.385 124.758 467.385 125.3Z" fill="#9AB6F4"/>
<path d="M467.116 123.944L439.519 142.794L411.922 123.809C412.466 122.859 413.417 122.181 414.641 122.181H464.533C465.485 122.181 466.572 122.995 467.116 123.944Z" fill="#E2EBFC"/>
<path d="M104.678 125.3V155.134C104.678 156.761 103.319 158.117 101.688 158.117H51.7955C50.1641 158.117 48.8047 156.761 48.8047 155.134V125.3C48.8047 124.758 48.9406 124.351 49.0766 123.944C49.6204 122.995 50.572 122.317 51.7955 122.317H101.688C102.911 122.317 103.863 122.995 104.407 123.944C104.543 124.351 104.678 124.758 104.678 125.3Z" fill="#9AB6F4"/>
<path d="M104.409 123.944L76.8119 142.794L49.2148 123.809C49.7586 122.859 50.7102 122.181 51.9338 122.181H101.826C102.913 122.181 103.865 122.995 104.409 123.944Z" fill="#E2EBFC"/>
<path d="M28.8221 55.3273L21.7529 51.3947C21.2092 51.1235 20.6654 51.6659 20.8013 52.2083L23.9281 59.9379C24.064 60.2091 23.9281 60.4803 23.7921 60.6159L14.9556 69.1592C14.6838 69.4304 14.004 69.2948 13.8681 68.8879L0.00159713 26.8499C-0.134349 26.3075 0.409435 25.765 0.953219 26.0363L38.0665 46.106C38.4743 46.3772 38.4743 46.7841 38.2024 47.0553L29.6378 55.1917C29.3659 55.4629 29.094 55.4629 28.8221 55.3273Z" fill="#E2EBFC"/>
<path d="M424.015 76.8887L431.492 80.0076C432.036 80.2788 432.58 79.6008 432.308 79.0584L428.23 71.7356C428.094 71.4644 428.094 71.1932 428.366 71.0576L436.251 61.7007C436.522 61.2939 437.066 61.4295 437.338 61.8363L455.827 101.976C456.099 102.518 455.555 103.061 455.011 102.79L415.859 87.0592C415.451 86.9236 415.315 86.3811 415.587 86.1099L423.2 77.1599C423.472 76.8887 423.744 76.8887 424.015 76.8887Z" fill="#E2EBFC"/>
</g>
<defs>
<linearGradient id="paint0_linear" x1="56.3984" y1="309.045" x2="144.495" y2="341.19" gradientUnits="userSpaceOnUse">
<stop stop-color="#E7EFFC"/>
<stop offset="1" stop-color="#9CB5F6"/>
</linearGradient>
<linearGradient id="paint1_linear" x1="53.512" y1="270.308" x2="225.718" y2="333.143" gradientUnits="userSpaceOnUse">
<stop stop-color="#E7EFFC"/>
<stop offset="1" stop-color="#9CB5F6"/>
</linearGradient>
<linearGradient id="paint2_linear" x1="76.6626" y1="277.985" x2="191.573" y2="319.913" gradientUnits="userSpaceOnUse">
<stop stop-color="#E7EFFC"/>
<stop offset="1" stop-color="#9CB5F6"/>
</linearGradient>
<linearGradient id="paint3_linear" x1="90.2371" y1="239.245" x2="256.291" y2="299.835" gradientUnits="userSpaceOnUse">
<stop stop-color="#E7EFFC"/>
<stop offset="1" stop-color="#9CB5F6"/>
</linearGradient>
<linearGradient id="paint4_linear" x1="114.601" y1="253.563" x2="238.149" y2="298.643" gradientUnits="userSpaceOnUse">
<stop stop-color="#E7EFFC"/>
<stop offset="1" stop-color="#9CB5F6"/>
</linearGradient>
<linearGradient id="paint5_linear" x1="133.33" y1="226.06" x2="297.799" y2="286.071" gradientUnits="userSpaceOnUse">
<stop stop-color="#E7EFFC"/>
<stop offset="1" stop-color="#9CB5F6"/>
</linearGradient>
<linearGradient id="paint6_linear" x1="156.739" y1="241.171" x2="282.177" y2="286.94" gradientUnits="userSpaceOnUse">
<stop stop-color="#E7EFFC"/>
<stop offset="1" stop-color="#9CB5F6"/>
</linearGradient>
<linearGradient id="paint7_linear" x1="400.263" y1="324.292" x2="493.308" y2="324.292" gradientUnits="userSpaceOnUse">
<stop stop-color="#9CB5F6"/>
<stop offset="1" stop-color="#E7EFFC"/>
</linearGradient>
<linearGradient id="paint8_linear" x1="321.968" y1="291.178" x2="487.32" y2="291.178" gradientUnits="userSpaceOnUse">
<stop stop-color="#9CB5F6"/>
<stop offset="1" stop-color="#E7EFFC"/>
</linearGradient>
<linearGradient id="paint9_linear" x1="361.227" y1="298.875" x2="466.692" y2="298.875" gradientUnits="userSpaceOnUse">
<stop stop-color="#9CB5F6"/>
<stop offset="1" stop-color="#E7EFFC"/>
</linearGradient>
<linearGradient id="paint10_linear" x1="303.56" y1="265.301" x2="442.073" y2="265.301" gradientUnits="userSpaceOnUse">
<stop stop-color="#9CB5F6"/>
<stop offset="1" stop-color="#E7EFFC"/>
</linearGradient>
<linearGradient id="paint11_linear" x1="321.968" y1="276.023" x2="421.445" y2="276.023" gradientUnits="userSpaceOnUse">
<stop stop-color="#9CB5F6"/>
<stop offset="1" stop-color="#E7EFFC"/>
</linearGradient>
<linearGradient id="paint12_linear" x1="267.073" y1="251.694" x2="394.829" y2="251.694" gradientUnits="userSpaceOnUse">
<stop stop-color="#9CB5F6"/>
<stop offset="1" stop-color="#E7EFFC"/>
</linearGradient>
<linearGradient id="paint13_linear" x1="282.378" y1="263.974" x2="374.869" y2="263.974" gradientUnits="userSpaceOnUse">
<stop stop-color="#9CB5F6"/>
<stop offset="1" stop-color="#E7EFFC"/>
</linearGradient>
<linearGradient id="paint14_linear" x1="322.353" y1="313.253" x2="373.621" y2="251.429" gradientUnits="userSpaceOnUse">
<stop stop-color="#5E79F6"/>
<stop offset="1" stop-color="#98C0FC"/>
</linearGradient>
<linearGradient id="paint15_linear" x1="104.714" y1="316.971" x2="164.933" y2="316.971" gradientUnits="userSpaceOnUse">
<stop stop-color="#5E79F6"/>
<stop offset="1" stop-color="#98C0FC"/>
</linearGradient>
<linearGradient id="paint16_linear" x1="242.969" y1="280.691" x2="214.498" y2="244.846" gradientUnits="userSpaceOnUse">
<stop stop-color="#FA775E"/>
<stop offset="1" stop-color="#FFC484"/>
</linearGradient>
<linearGradient id="paint17_linear" x1="217.924" y1="187.653" x2="233.057" y2="187.653" gradientUnits="userSpaceOnUse">
<stop stop-color="#EA425E"/>
<stop offset="1" stop-color="#FF866D"/>
</linearGradient>
<linearGradient id="paint18_linear" x1="333.21" y1="352.994" x2="255.986" y2="229.424" gradientUnits="userSpaceOnUse">
<stop stop-color="#FA775E"/>
<stop offset="1" stop-color="#FFC484"/>
</linearGradient>
<linearGradient id="paint19_linear" x1="265.743" y1="147.689" x2="293.486" y2="147.689" gradientUnits="userSpaceOnUse">
<stop stop-color="#4944A8"/>
<stop offset="1" stop-color="#302B92"/>
</linearGradient>
<linearGradient id="paint20_linear" x1="224.902" y1="171.588" x2="280.696" y2="171.588" gradientUnits="userSpaceOnUse">
<stop stop-color="#4944A8"/>
<stop offset="1" stop-color="#302B92"/>
</linearGradient>
<linearGradient id="paint21_linear" x1="271.989" y1="208.689" x2="274.405" y2="233.512" gradientUnits="userSpaceOnUse">
<stop stop-color="#F9C795"/>
<stop offset="1" stop-color="#FEE3C2"/>
</linearGradient>
<linearGradient id="paint22_linear" x1="288.61" y1="219.273" x2="251.448" y2="179.534" gradientUnits="userSpaceOnUse">
<stop stop-color="#F9C795"/>
<stop offset="1" stop-color="#FEE3C2"/>
</linearGradient>
<linearGradient id="paint23_linear" x1="227.814" y1="210.244" x2="256.774" y2="210.244" gradientUnits="userSpaceOnUse">
<stop stop-color="#EA425E"/>
<stop offset="1" stop-color="#FF866D"/>
</linearGradient>
<linearGradient id="paint24_linear" x1="229.661" y1="254.995" x2="198.379" y2="244.044" gradientUnits="userSpaceOnUse">
<stop stop-color="#F9C795"/>
<stop offset="1" stop-color="#FEE3C2"/>
</linearGradient>
<linearGradient id="paint25_linear" x1="284.615" y1="319.227" x2="275.047" y2="301.151" gradientUnits="userSpaceOnUse">
<stop stop-color="#F9C795"/>
<stop offset="1" stop-color="#FEE3C2"/>
</linearGradient>
<linearGradient id="paint26_linear" x1="339.836" y1="270.138" x2="302.087" y2="261.674" gradientUnits="userSpaceOnUse">
<stop stop-color="#FA775E"/>
<stop offset="1" stop-color="#FFC484"/>
</linearGradient>
<clipPath id="clip0">
<rect width="503" height="342" fill="white"/>
</clipPath>
</defs>
</svg>
